<svg id="svg" version="1.1" xmlns="http://www.w3.org/2000/svg" xmlns:xlink="http://www.w3.org/1999/xlink" width="400" height="164.0677966101695" viewBox="0, 0, 400,164.0677966101695"><g id="svgg"><path id="path0" d="M101.955 7.978 C 95.615 11.268,85.967 17.581,79.333 22.778 C 75.696 25.628,72.398 28.240,72.333 28.321 C 72.287 28.379,71.387 29.133,70.333 29.997 C 67.887 32.002,64.056 35.298,61.917 37.240 C 61.000 38.072,59.575 39.352,58.750 40.084 C 57.925 40.816,56.611 42.015,55.830 42.749 C 55.049 43.483,53.249 45.170,51.830 46.498 C 49.038 49.110,35.019 63.064,32.165 66.071 C 28.680 69.744,25.440 73.185,25.127 73.547 C 24.952 73.750,24.416 74.329,23.938 74.833 C 23.459 75.337,22.621 76.240,22.076 76.840 C 21.530 77.439,20.367 78.714,19.491 79.673 C 14.304 85.352,6.877 93.776,2.117 99.379 L 0.167 101.674 0.202 111.712 C 0.221 117.233,0.277 120.594,0.327 119.181 L 0.417 116.611 0.929 116.325 C 1.211 116.168,1.699 115.984,2.013 115.917 C 2.327 115.850,2.658 115.736,2.750 115.664 C 2.842 115.592,3.254 115.447,3.667 115.343 C 4.079 115.238,4.567 115.086,4.750 115.005 C 4.933 114.923,5.383 114.771,5.750 114.667 C 6.117 114.562,6.567 114.414,6.750 114.337 C 7.140 114.173,8.500 113.723,9.333 113.481 C 9.654 113.388,10.142 113.212,10.417 113.090 C 10.692 112.968,11.165 112.816,11.470 112.752 C 11.774 112.688,12.224 112.530,12.470 112.402 C 12.715 112.274,13.018 112.168,13.141 112.168 C 13.265 112.167,13.603 112.063,13.891 111.935 C 14.180 111.808,15.204 111.465,16.167 111.172 C 17.129 110.880,18.029 110.586,18.167 110.519 C 18.304 110.453,19.092 110.186,19.917 109.926 C 20.742 109.666,21.653 109.352,21.942 109.227 C 22.231 109.102,22.568 109.000,22.692 108.999 C 22.816 108.998,23.112 108.896,23.351 108.771 C 23.590 108.647,24.190 108.450,24.684 108.334 C 25.179 108.218,25.659 108.063,25.752 107.991 C 25.845 107.918,26.295 107.767,26.752 107.655 C 27.209 107.543,27.658 107.396,27.750 107.329 C 27.842 107.261,28.179 107.151,28.500 107.085 C 28.821 107.019,29.308 106.868,29.583 106.750 C 30.095 106.531,31.169 106.162,32.500 105.750 C 33.898 105.317,34.915 104.965,35.442 104.732 C 35.731 104.604,36.106 104.500,36.275 104.499 C 36.445 104.498,36.786 104.392,37.035 104.262 C 37.283 104.133,37.902 103.934,38.410 103.820 C 38.918 103.707,39.333 103.551,39.333 103.473 C 39.333 103.396,39.427 103.334,39.542 103.334 C 39.822 103.335,42.452 102.523,43.109 102.232 C 43.397 102.105,43.697 102.000,43.775 102.001 C 43.988 102.002,46.677 101.163,47.250 100.917 C 47.525 100.798,47.999 100.649,48.303 100.585 C 48.607 100.521,49.057 100.364,49.303 100.235 C 49.549 100.107,49.862 100.001,50.000 100.000 C 50.137 99.999,50.453 99.892,50.702 99.762 C 50.951 99.632,51.568 99.440,52.074 99.335 C 52.580 99.230,53.032 99.083,53.079 99.008 C 53.125 98.933,53.445 98.818,53.790 98.754 C 54.135 98.690,54.492 98.577,54.583 98.504 C 54.675 98.430,55.181 98.275,55.708 98.159 C 56.235 98.042,56.667 97.896,56.667 97.833 C 56.667 97.771,57.082 97.627,57.590 97.513 C 58.098 97.399,58.717 97.200,58.965 97.071 C 59.214 96.941,59.509 96.835,59.622 96.834 C 59.891 96.833,61.939 96.190,62.609 95.897 C 62.897 95.770,63.207 95.667,63.296 95.667 C 63.496 95.667,65.960 94.882,66.417 94.673 C 66.600 94.590,66.938 94.474,67.167 94.416 C 68.067 94.188,70.430 93.469,70.667 93.350 C 70.804 93.282,71.592 93.019,72.417 92.767 C 73.242 92.515,74.067 92.240,74.250 92.156 C 74.433 92.073,74.996 91.893,75.500 91.758 C 76.502 91.488,77.892 91.048,78.417 90.833 C 78.899 90.636,81.558 89.832,81.725 89.833 C 81.803 89.833,82.103 89.729,82.391 89.601 C 83.141 89.269,85.696 88.498,86.042 88.499 C 86.202 88.500,86.333 88.434,86.333 88.354 C 86.333 88.274,86.577 88.161,86.875 88.103 C 87.624 87.957,90.138 87.181,90.775 86.899 C 91.064 86.771,91.428 86.667,91.583 86.667 C 91.739 86.667,92.103 86.564,92.391 86.438 C 92.680 86.312,93.254 86.121,93.667 86.013 C 94.079 85.906,94.567 85.752,94.750 85.671 C 95.123 85.506,97.146 84.907,97.917 84.733 C 98.192 84.671,98.492 84.563,98.583 84.493 C 98.675 84.423,99.087 84.280,99.500 84.176 C 99.912 84.072,100.400 83.917,100.583 83.833 C 100.767 83.748,101.329 83.570,101.833 83.437 C 102.337 83.304,103.963 82.814,105.447 82.347 C 106.930 81.881,108.261 81.500,108.405 81.500 C 108.549 81.500,108.667 81.435,108.667 81.355 C 108.667 81.275,109.115 81.122,109.662 81.014 C 110.209 80.907,110.866 80.710,111.120 80.577 C 111.375 80.444,111.722 80.335,111.891 80.334 C 112.061 80.334,112.436 80.228,112.725 80.100 C 113.160 79.907,113.911 79.683,114.917 79.447 C 115.008 79.425,115.158 79.362,115.250 79.307 C 115.342 79.251,115.679 79.151,116.000 79.084 C 116.321 79.016,116.658 78.905,116.750 78.836 C 116.842 78.767,117.329 78.616,117.833 78.500 C 118.337 78.384,118.825 78.231,118.917 78.160 C 119.008 78.088,119.552 77.933,120.125 77.815 C 120.698 77.697,121.167 77.550,121.167 77.488 C 121.167 77.427,121.627 77.286,122.190 77.175 C 122.752 77.065,123.333 76.906,123.481 76.823 C 123.629 76.740,124.200 76.552,124.750 76.404 C 127.230 75.738,127.593 75.626,127.742 75.484 C 127.829 75.401,128.035 75.333,128.199 75.333 C 128.364 75.333,128.930 75.191,129.458 75.017 C 130.409 74.703,131.366 74.415,134.250 73.574 C 135.075 73.333,135.900 73.072,136.083 72.992 C 136.267 72.912,136.754 72.766,137.167 72.667 C 137.579 72.567,138.067 72.423,138.250 72.346 C 138.433 72.268,139.371 71.995,140.333 71.739 C 141.296 71.483,142.158 71.220,142.250 71.155 C 142.342 71.090,142.867 70.941,143.417 70.824 C 143.967 70.707,144.492 70.557,144.583 70.491 C 144.675 70.425,145.200 70.273,145.750 70.154 C 146.300 70.035,146.787 69.890,146.833 69.831 C 146.879 69.773,147.404 69.598,148.000 69.443 C 148.596 69.288,149.496 69.047,150.000 68.909 C 150.504 68.771,150.992 68.639,151.083 68.616 C 151.175 68.593,151.326 68.527,151.418 68.469 C 151.510 68.411,151.885 68.310,152.251 68.243 C 152.617 68.177,152.992 68.067,153.083 67.998 C 153.175 67.929,153.737 67.755,154.333 67.612 C 155.880 67.239,157.555 66.763,157.750 66.641 C 157.842 66.584,158.367 66.446,158.917 66.334 C 159.467 66.222,159.992 66.072,160.083 66.001 C 160.175 65.930,160.587 65.792,161.000 65.695 C 161.412 65.597,162.425 65.323,163.250 65.086 C 164.075 64.848,165.087 64.573,165.500 64.474 C 165.912 64.376,166.325 64.236,166.417 64.165 C 166.689 63.953,169.256 63.481,169.542 63.590 C 169.687 63.646,170.018 64.003,170.278 64.384 C 170.744 65.067,170.969 65.363,171.542 66.040 C 171.702 66.229,171.833 66.443,171.833 66.514 C 171.833 66.585,171.927 66.742,172.042 66.863 C 172.157 66.984,172.724 67.721,173.303 68.500 C 173.881 69.279,174.536 70.142,174.757 70.417 C 174.979 70.692,175.162 71.010,175.164 71.125 C 175.165 71.240,175.231 71.333,175.310 71.333 C 175.430 71.333,176.303 72.502,176.917 73.483 C 177.008 73.630,177.177 73.810,177.292 73.883 C 177.406 73.957,177.500 74.096,177.500 74.193 C 177.500 74.291,177.800 74.729,178.167 75.167 C 178.533 75.605,178.833 76.011,178.833 76.070 C 178.833 76.165,179.837 77.525,180.376 78.161 C 180.490 78.295,180.658 78.533,180.750 78.690 C 180.923 78.986,184.532 83.948,184.802 84.260 C 184.886 84.358,185.046 84.607,185.157 84.815 C 185.268 85.022,185.469 85.317,185.603 85.471 C 186.042 85.972,187.167 87.488,187.167 87.578 C 187.167 87.627,187.283 87.798,187.426 87.958 C 187.696 88.262,188.900 89.867,189.333 90.500 C 189.549 90.815,190.169 91.646,191.295 93.129 C 191.454 93.338,191.659 93.600,191.752 93.713 C 191.844 93.825,192.444 94.629,193.083 95.500 C 193.723 96.371,194.322 97.165,194.415 97.264 C 194.508 97.364,194.733 97.654,194.917 97.908 C 195.100 98.163,195.381 98.532,195.542 98.728 C 195.703 98.923,196.205 99.552,196.658 100.124 C 197.111 100.697,197.523 101.098,197.573 101.016 C 197.624 100.934,198.060 100.773,198.541 100.658 C 199.023 100.543,199.529 100.385,199.667 100.306 C 200.055 100.086,203.219 98.868,203.752 98.735 C 204.014 98.669,204.420 98.515,204.656 98.392 C 204.891 98.269,205.327 98.122,205.625 98.066 C 205.923 98.009,206.167 97.902,206.167 97.828 C 206.167 97.754,206.410 97.641,206.708 97.578 C 207.006 97.514,207.550 97.332,207.917 97.174 C 208.283 97.015,209.033 96.716,209.583 96.511 C 210.904 96.016,211.765 95.674,212.616 95.304 C 213.000 95.137,213.370 95.000,213.436 95.000 C 213.575 95.000,215.491 94.261,216.275 93.905 C 216.564 93.774,216.864 93.664,216.942 93.661 C 217.020 93.658,217.383 93.510,217.750 93.333 C 218.117 93.156,218.492 93.009,218.583 93.006 C 218.751 93.000,221.627 91.858,222.609 91.408 C 222.897 91.275,223.197 91.164,223.275 91.161 C 223.353 91.158,223.717 91.010,224.083 90.833 C 224.450 90.656,224.814 90.509,224.891 90.506 C 224.969 90.503,225.269 90.391,225.558 90.258 C 225.847 90.125,226.946 89.671,228.000 89.250 C 229.054 88.829,230.153 88.375,230.442 88.242 C 230.731 88.109,231.031 88.000,231.109 87.999 C 231.186 87.998,231.449 87.894,231.692 87.767 C 231.935 87.640,232.423 87.444,232.776 87.330 C 233.128 87.216,233.492 87.068,233.583 87.000 C 233.675 86.932,234.050 86.782,234.417 86.667 C 234.783 86.551,235.158 86.401,235.250 86.333 C 235.342 86.266,235.717 86.116,236.083 86.000 C 236.450 85.884,236.846 85.713,236.964 85.620 C 237.082 85.526,237.402 85.456,237.676 85.464 C 238.179 85.478,238.343 85.606,240.501 87.667 C 241.541 88.659,243.491 90.431,245.083 91.832 C 245.633 92.315,246.571 93.141,247.167 93.667 C 247.762 94.192,248.700 95.017,249.250 95.499 C 249.800 95.981,250.525 96.628,250.860 96.938 C 251.196 97.247,251.548 97.500,251.644 97.500 C 251.739 97.500,251.877 97.595,251.950 97.712 C 252.023 97.828,252.695 98.429,253.443 99.047 C 254.191 99.665,255.016 100.351,255.277 100.572 C 255.537 100.793,256.425 101.503,257.250 102.150 C 258.075 102.798,258.862 103.428,259.000 103.551 C 259.137 103.674,259.550 103.994,259.917 104.262 C 260.283 104.531,260.675 104.825,260.787 104.917 C 260.900 105.008,261.185 105.233,261.421 105.417 C 261.657 105.600,262.008 105.881,262.201 106.042 C 262.393 106.202,262.604 106.333,262.668 106.333 C 262.732 106.333,263.002 106.523,263.267 106.755 C 263.533 106.987,263.841 107.249,263.951 107.338 C 264.208 107.545,264.789 107.548,264.861 107.343 C 264.892 107.257,265.442 106.845,266.083 106.427 C 266.725 106.010,267.362 105.591,267.500 105.497 C 267.743 105.330,268.622 104.755,269.153 104.415 C 269.757 104.028,270.428 103.577,270.583 103.453 C 270.675 103.381,271.064 103.117,271.448 102.869 C 272.212 102.374,275.563 100.138,276.969 99.184 C 277.456 98.854,278.145 98.396,278.499 98.167 C 278.854 97.938,279.731 97.355,280.447 96.873 C 281.164 96.390,281.888 95.902,282.057 95.789 C 282.226 95.676,282.792 95.283,283.315 94.917 C 283.838 94.550,284.389 94.175,284.539 94.083 C 285.050 93.770,290.250 90.250,290.333 90.161 C 290.571 89.905,293.078 88.333,293.247 88.333 C 293.456 88.333,294.022 88.921,295.014 90.167 C 295.672 90.993,297.435 92.966,298.642 94.226 C 300.683 96.359,305.726 100.667,306.181 100.667 C 306.270 100.667,306.384 100.772,306.434 100.901 C 306.483 101.031,306.744 101.227,307.012 101.338 C 307.280 101.449,307.500 101.601,307.500 101.676 C 307.500 101.750,307.650 101.858,307.832 101.916 C 308.015 101.974,308.261 102.111,308.379 102.219 C 308.695 102.510,309.518 102.991,310.042 103.191 C 310.294 103.287,310.500 103.428,310.500 103.503 C 310.500 103.579,310.763 103.727,311.083 103.833 C 311.404 103.939,311.667 104.095,311.667 104.180 C 311.667 104.264,311.754 104.333,311.862 104.333 C 311.969 104.333,312.513 104.548,313.070 104.811 C 313.627 105.073,314.383 105.415,314.750 105.570 C 315.117 105.725,315.616 105.960,315.859 106.092 C 316.102 106.225,316.391 106.333,316.501 106.333 C 316.610 106.333,316.936 106.444,317.225 106.580 C 317.859 106.877,320.947 107.833,321.273 107.833 C 321.400 107.833,321.635 107.906,321.794 107.994 C 322.187 108.213,324.197 108.627,326.417 108.946 C 327.425 109.090,328.400 109.269,328.583 109.343 C 329.595 109.749,340.546 110.115,342.543 109.809 C 343.023 109.736,344.579 109.601,346.000 109.510 C 347.421 109.420,348.902 109.305,349.293 109.256 C 349.683 109.207,350.920 109.053,352.043 108.913 C 355.193 108.521,358.223 108.074,358.500 107.961 C 358.637 107.905,359.293 107.785,359.956 107.694 C 360.620 107.602,361.276 107.414,361.416 107.275 C 361.555 107.136,361.837 106.969,362.043 106.905 C 362.248 106.841,362.454 106.735,362.500 106.670 C 362.546 106.605,362.788 106.446,363.038 106.317 C 365.122 105.246,365.761 104.904,365.833 104.823 C 365.907 104.739,369.321 102.736,370.721 101.955 C 371.012 101.793,371.700 101.365,372.250 101.006 C 372.800 100.646,373.738 100.072,374.333 99.731 C 374.929 99.390,375.442 99.049,375.472 98.972 C 375.503 98.896,375.602 98.833,375.692 98.833 C 375.782 98.833,376.101 98.646,376.402 98.417 C 376.702 98.187,377.035 98.000,377.141 98.000 C 377.247 98.000,377.335 97.944,377.338 97.875 C 377.340 97.806,377.656 97.563,378.040 97.333 C 378.424 97.104,379.434 96.448,380.284 95.875 C 381.135 95.302,381.872 94.833,381.922 94.833 C 381.973 94.833,382.175 94.683,382.372 94.500 C 382.569 94.317,382.828 94.167,382.948 94.167 C 383.068 94.167,383.167 94.101,383.167 94.020 C 383.167 93.940,383.392 93.781,383.667 93.667 C 383.942 93.553,384.167 93.391,384.167 93.308 C 384.167 93.224,384.298 93.107,384.458 93.046 C 384.619 92.985,385.275 92.555,385.917 92.089 C 386.558 91.624,387.421 91.020,387.833 90.747 C 388.246 90.473,388.658 90.190,388.750 90.118 C 391.205 88.167,391.655 88.000,392.559 88.705 C 395.207 90.769,398.967 93.776,399.215 94.029 C 399.810 94.636,399.833 94.422,399.833 88.250 C 399.833 84.904,399.795 82.167,399.748 82.167 C 399.660 82.167,398.289 83.180,394.250 86.232 C 391.660 88.188,391.647 88.193,390.830 87.528 C 382.635 80.857,366.375 69.831,357.167 64.702 C 356.754 64.472,355.920 64.004,355.312 63.662 C 352.243 61.934,346.199 59.050,342.917 57.746 C 342.275 57.491,341.725 57.220,341.695 57.143 C 341.665 57.066,341.546 57.096,341.432 57.210 C 341.317 57.324,339.729 58.303,337.903 59.386 C 336.077 60.468,333.996 61.725,333.279 62.177 C 332.561 62.630,331.939 63.000,331.897 63.000 C 331.855 63.000,331.617 63.142,331.368 63.315 C 331.120 63.488,329.905 64.257,328.668 65.023 C 327.432 65.790,326.066 66.642,325.634 66.917 C 322.571 68.866,319.365 70.933,315.584 73.397 C 313.597 74.691,302.179 82.300,295.600 86.715 C 293.080 88.406,293.437 88.505,291.215 85.500 C 289.491 83.168,288.463 81.696,284.582 76.000 C 282.993 73.668,281.383 71.314,280.514 70.054 C 279.296 68.288,279.566 68.330,276.724 69.469 C 270.350 72.023,267.056 73.354,266.750 73.499 C 266.404 73.662,263.539 74.846,260.500 76.080 C 259.537 76.471,257.925 77.132,256.917 77.550 C 253.580 78.933,250.948 80.018,248.333 81.089 C 244.232 82.767,242.454 83.502,241.917 83.738 C 241.642 83.859,240.611 84.280,239.626 84.674 L 237.835 85.389 236.626 84.243 C 230.226 78.178,223.879 71.983,212.210 60.416 C 208.603 56.840,205.599 53.957,205.534 54.009 C 205.470 54.061,204.817 54.243,204.083 54.413 C 202.180 54.854,191.503 57.533,188.833 58.239 C 187.596 58.567,185.421 59.143,184.000 59.521 C 182.579 59.898,181.042 60.302,180.583 60.419 C 180.125 60.535,178.475 60.984,176.917 61.415 C 175.358 61.847,173.708 62.298,173.250 62.418 C 172.792 62.538,171.758 62.819,170.953 63.043 L 169.490 63.451 168.861 62.684 C 168.516 62.262,167.789 61.317,167.246 60.583 C 165.005 57.555,158.316 49.176,155.609 46.005 C 154.707 44.948,153.619 43.672,153.193 43.169 C 139.171 26.650,123.200 14.116,109.083 8.551 C 107.352 7.869,104.440 6.845,104.205 6.835 C 104.180 6.834,103.167 7.348,101.955 7.978 " stroke="none" fill="#e4e4e4" fill-rule="evenodd"></path><path id="path1" d="M123.417 0.353 C 122.683 0.436,121.896 0.511,121.667 0.520 C 121.438 0.529,121.175 0.593,121.083 0.663 C 120.929 0.779,120.480 0.863,118.752 1.100 C 118.387 1.150,118.050 1.250,118.002 1.322 C 117.955 1.395,117.542 1.509,117.083 1.577 C 116.625 1.644,116.209 1.765,116.160 1.845 C 116.110 1.925,115.772 2.038,115.410 2.095 C 115.047 2.153,114.629 2.265,114.480 2.344 C 114.332 2.423,114.163 2.441,114.105 2.383 C 114.047 2.325,114.000 2.362,114.000 2.464 C 114.000 2.566,113.550 2.738,113.000 2.847 C 112.450 2.955,112.000 3.109,112.000 3.188 C 112.000 3.268,111.892 3.333,111.761 3.333 C 111.629 3.333,111.311 3.421,111.053 3.528 C 110.794 3.635,110.546 3.735,110.500 3.750 C 110.454 3.765,110.192 3.876,109.917 3.996 C 109.642 4.116,109.279 4.229,109.110 4.247 C 108.941 4.265,108.753 4.354,108.693 4.444 C 108.602 4.580,108.243 4.777,107.833 4.916 C 107.366 5.075,106.702 5.365,106.500 5.497 C 106.280 5.642,105.225 6.170,105.000 6.249 C 104.954 6.265,104.702 6.367,104.440 6.475 C 104.054 6.635,103.867 6.625,103.461 6.422 C 103.185 6.285,102.899 6.210,102.825 6.255 C 102.750 6.301,102.646 6.268,102.592 6.181 C 102.539 6.094,102.083 5.972,101.581 5.909 C 101.078 5.846,100.667 5.723,100.667 5.636 C 100.667 5.548,100.498 5.493,100.292 5.513 C 100.085 5.533,99.804 5.506,99.667 5.452 C 99.529 5.399,99.042 5.273,98.583 5.173 C 98.125 5.072,97.638 4.963,97.500 4.929 C 97.362 4.895,96.763 4.813,96.167 4.747 C 95.571 4.681,95.006 4.565,94.912 4.490 C 94.817 4.415,94.405 4.351,93.995 4.349 C 93.585 4.347,92.462 4.261,91.500 4.158 C 89.694 3.966,80.135 4.038,79.333 4.251 C 79.104 4.311,78.617 4.390,78.250 4.425 C 77.883 4.460,77.058 4.571,76.417 4.671 C 75.775 4.771,75.083 4.858,74.878 4.864 C 74.673 4.870,74.537 4.925,74.574 4.985 C 74.612 5.046,74.516 5.102,74.363 5.111 C 74.209 5.120,73.596 5.214,73.000 5.319 C 72.404 5.425,71.748 5.510,71.542 5.508 C 71.335 5.505,71.167 5.565,71.167 5.639 C 71.167 5.749,69.402 6.128,68.542 6.204 C 68.427 6.214,68.333 6.276,68.333 6.343 C 68.333 6.462,67.604 6.634,66.511 6.772 C 66.195 6.812,65.858 6.908,65.761 6.986 C 65.663 7.064,65.321 7.183,65.000 7.250 C 64.679 7.317,64.342 7.428,64.250 7.497 C 64.158 7.565,63.971 7.626,63.833 7.633 C 63.242 7.660,61.989 8.101,62.114 8.238 C 62.189 8.320,62.168 8.340,62.068 8.283 C 61.967 8.226,61.507 8.323,61.046 8.498 C 60.584 8.673,60.160 8.771,60.103 8.714 C 60.046 8.657,60.000 8.692,60.000 8.791 C 60.000 8.890,59.700 9.021,59.334 9.083 C 58.968 9.145,58.625 9.265,58.573 9.351 C 58.520 9.436,58.407 9.462,58.322 9.410 C 58.236 9.357,58.167 9.390,58.167 9.483 C 58.167 9.576,57.885 9.702,57.542 9.764 C 57.198 9.825,56.804 9.969,56.667 10.083 C 56.529 10.198,56.134 10.342,55.790 10.404 C 55.445 10.465,54.796 10.700,54.349 10.925 C 53.901 11.149,53.419 11.333,53.277 11.333 C 53.136 11.333,52.977 11.403,52.925 11.487 C 52.872 11.572,52.605 11.690,52.331 11.750 C 52.057 11.811,51.833 11.921,51.833 11.995 C 51.833 12.069,51.573 12.178,51.255 12.238 C 50.937 12.298,50.564 12.460,50.425 12.599 C 50.286 12.738,50.015 12.882,49.823 12.919 C 49.178 13.043,48.767 13.209,48.538 13.439 C 48.412 13.564,48.202 13.667,48.071 13.667 C 47.940 13.667,47.552 13.817,47.210 14.000 C 46.868 14.183,46.489 14.333,46.368 14.333 C 46.246 14.333,46.193 14.407,46.249 14.498 C 46.307 14.593,46.240 14.621,46.092 14.564 C 45.950 14.509,45.833 14.534,45.833 14.618 C 45.833 14.703,45.421 14.943,44.917 15.152 C 44.413 15.361,44.000 15.597,44.000 15.677 C 44.000 15.757,43.887 15.780,43.750 15.727 C 43.613 15.674,43.500 15.708,43.500 15.803 C 43.500 15.897,43.221 16.066,42.880 16.179 C 42.538 16.292,42.158 16.485,42.034 16.608 C 41.911 16.732,41.674 16.833,41.509 16.833 C 41.343 16.833,41.118 16.941,41.009 17.073 C 40.900 17.204,40.597 17.359,40.336 17.416 C 40.074 17.474,39.693 17.666,39.488 17.844 C 39.283 18.021,38.986 18.167,38.828 18.167 C 38.670 18.167,38.447 18.279,38.333 18.417 C 38.219 18.554,38.028 18.667,37.908 18.667 C 37.788 18.667,37.578 18.779,37.441 18.916 C 37.216 19.141,36.330 19.557,36.196 19.501 C 36.166 19.488,36.001 19.640,35.830 19.838 C 35.658 20.035,35.438 20.148,35.341 20.088 C 35.244 20.028,35.121 20.092,35.068 20.229 C 35.015 20.367,34.753 20.528,34.486 20.586 C 34.219 20.645,34.000 20.762,34.000 20.847 C 34.000 20.931,33.944 20.986,33.875 20.970 C 33.678 20.923,32.500 21.546,32.500 21.698 C 32.500 21.772,32.391 21.833,32.258 21.833 C 32.125 21.833,31.957 21.935,31.883 22.060 C 31.810 22.184,31.469 22.378,31.125 22.489 C 30.781 22.601,30.500 22.756,30.500 22.833 C 30.500 22.911,30.237 23.061,29.917 23.167 C 29.596 23.273,29.333 23.422,29.333 23.498 C 29.333 23.574,28.998 23.799,28.588 23.998 C 28.178 24.196,27.597 24.522,27.296 24.721 C 26.996 24.920,26.544 25.190,26.292 25.320 C 26.040 25.450,25.833 25.619,25.833 25.695 C 25.833 25.771,25.683 25.833,25.500 25.833 C 25.317 25.833,25.167 25.898,25.167 25.978 C 25.167 26.176,23.899 27.000,23.595 27.000 C 23.460 27.000,23.290 27.094,23.217 27.209 C 23.143 27.323,22.858 27.529,22.583 27.667 C 22.308 27.804,22.046 27.955,22.000 28.004 C 21.920 28.088,21.424 28.434,20.517 29.039 C 20.278 29.198,19.915 29.403,19.708 29.493 C 19.502 29.584,19.333 29.735,19.333 29.829 C 19.333 29.923,19.218 30.000,19.078 30.000 C 18.938 30.000,18.782 30.108,18.731 30.239 C 18.678 30.377,18.527 30.436,18.376 30.378 C 18.211 30.315,18.154 30.344,18.224 30.457 C 18.287 30.560,18.120 30.733,17.834 30.860 C 17.559 30.982,17.333 31.138,17.333 31.207 C 17.333 31.277,17.218 31.333,17.078 31.333 C 16.938 31.333,16.780 31.445,16.727 31.582 C 16.675 31.719,16.573 31.795,16.501 31.751 C 16.430 31.707,16.278 31.782,16.165 31.919 C 16.052 32.055,15.851 32.167,15.720 32.167 C 15.588 32.167,15.525 32.239,15.580 32.328 C 15.635 32.417,15.490 32.538,15.257 32.597 C 15.024 32.655,14.833 32.765,14.833 32.840 C 14.833 32.916,14.695 33.021,14.526 33.075 C 14.357 33.129,13.814 33.478,13.318 33.851 C 12.822 34.225,12.248 34.597,12.042 34.678 C 11.835 34.759,11.667 34.902,11.667 34.996 C 11.667 35.090,11.571 35.167,11.453 35.167 C 11.336 35.167,11.132 35.317,11.000 35.500 C 10.868 35.683,10.669 35.833,10.558 35.833 C 10.448 35.833,10.257 35.927,10.135 36.042 C 10.012 36.156,9.538 36.506,9.081 36.818 C 8.624 37.130,8.044 37.576,7.792 37.808 C 7.540 38.039,7.333 38.175,7.333 38.108 C 7.333 38.041,7.240 38.064,7.125 38.159 C 5.977 39.106,4.993 39.833,4.858 39.833 C 4.768 39.833,4.669 39.896,4.639 39.973 C 4.608 40.049,4.194 40.378,3.717 40.704 C 3.241 41.029,2.890 41.335,2.938 41.383 C 2.986 41.430,2.869 41.519,2.679 41.579 C 2.489 41.640,2.333 41.772,2.333 41.872 C 2.333 41.973,2.287 42.009,2.230 41.952 C 2.173 41.896,2.018 41.958,1.884 42.092 C 1.751 42.225,1.310 42.563,0.904 42.842 L 0.167 43.349 0.167 72.512 L 0.167 101.674 2.117 99.379 C 6.877 93.776,14.304 85.352,19.491 79.673 C 20.367 78.714,21.530 77.439,22.076 76.840 C 22.621 76.240,23.459 75.337,23.938 74.833 C 24.416 74.329,24.952 73.750,25.127 73.547 C 25.440 73.185,28.680 69.744,32.165 66.071 C 35.019 63.064,49.038 49.110,51.830 46.498 C 53.249 45.170,55.049 43.483,55.830 42.749 C 56.611 42.015,57.925 40.816,58.750 40.084 C 59.575 39.352,61.000 38.072,61.917 37.240 C 64.056 35.298,67.887 32.002,70.333 29.997 C 71.387 29.133,72.287 28.379,72.333 28.321 C 72.398 28.240,75.696 25.628,79.333 22.778 C 86.161 17.428,96.919 10.434,102.667 7.608 L 104.250 6.830 105.000 7.076 C 120.761 12.239,137.720 24.940,153.193 43.169 C 153.619 43.672,154.707 44.948,155.609 46.005 C 158.316 49.176,165.005 57.555,167.246 60.583 C 167.789 61.317,168.516 62.262,168.861 62.684 L 169.490 63.451 170.953 63.043 C 171.758 62.819,172.792 62.538,173.250 62.418 C 173.708 62.298,175.358 61.847,176.917 61.415 C 178.475 60.984,180.125 60.535,180.583 60.419 C 181.042 60.302,182.579 59.898,184.000 59.521 C 185.421 59.143,187.596 58.567,188.833 58.239 C 191.503 57.533,202.180 54.854,204.083 54.413 C 204.817 54.243,205.470 54.061,205.534 54.009 C 205.599 53.957,208.603 56.840,212.210 60.416 C 223.879 71.983,230.226 78.178,236.626 84.243 L 237.835 85.389 239.626 84.674 C 240.611 84.280,241.642 83.859,241.917 83.738 C 242.454 83.502,244.232 82.767,248.333 81.089 C 250.948 80.018,253.580 78.933,256.917 77.550 C 257.925 77.132,259.537 76.471,260.500 76.080 C 263.539 74.846,266.404 73.662,266.750 73.499 C 267.056 73.354,270.350 72.023,276.724 69.469 C 279.566 68.330,279.296 68.288,280.514 70.054 C 281.383 71.314,282.993 73.668,284.582 76.000 C 288.463 81.696,289.491 83.168,291.215 85.500 C 293.437 88.505,293.080 88.406,295.600 86.715 C 302.179 82.300,313.597 74.691,315.584 73.397 C 319.365 70.933,322.571 68.866,325.634 66.917 C 326.066 66.642,327.432 65.790,328.668 65.023 C 329.905 64.257,331.120 63.488,331.368 63.315 C 331.617 63.142,331.855 63.000,331.897 63.000 C 331.939 63.000,332.561 62.630,333.279 62.177 C 333.996 61.725,336.139 60.431,338.041 59.302 C 339.943 58.174,341.500 57.206,341.500 57.152 C 341.500 57.018,340.709 56.667,340.409 56.667 C 340.276 56.667,340.167 56.600,340.167 56.519 C 340.167 56.437,339.885 56.318,339.542 56.254 C 339.198 56.189,338.836 56.070,338.737 55.988 C 338.638 55.907,338.413 55.813,338.237 55.779 C 337.694 55.676,336.929 55.477,336.667 55.371 C 336.529 55.315,336.342 55.255,336.250 55.237 C 336.158 55.220,336.046 55.191,336.000 55.173 C 335.883 55.128,335.511 55.048,334.840 54.923 C 334.523 54.865,334.179 54.746,334.075 54.660 C 333.971 54.573,333.847 54.542,333.799 54.589 C 333.752 54.637,333.532 54.607,333.310 54.523 C 333.088 54.438,332.347 54.316,331.662 54.251 C 330.977 54.186,330.335 54.066,330.234 53.984 C 329.882 53.697,322.981 53.714,322.583 54.003 C 322.492 54.069,321.868 54.176,321.198 54.240 C 320.527 54.303,319.701 54.454,319.361 54.574 C 319.021 54.694,318.275 54.846,317.704 54.912 C 317.133 54.979,316.629 55.093,316.583 55.167 C 316.537 55.241,316.338 55.260,316.140 55.208 C 315.911 55.148,315.821 55.178,315.890 55.291 C 315.960 55.403,315.638 55.509,314.999 55.583 C 314.449 55.647,313.957 55.768,313.905 55.852 C 313.853 55.937,313.732 55.957,313.637 55.898 C 313.541 55.839,313.407 55.881,313.339 55.991 C 313.271 56.102,312.904 56.234,312.524 56.285 C 312.144 56.336,311.833 56.442,311.833 56.522 C 311.833 56.602,311.655 56.667,311.438 56.667 C 311.220 56.667,310.732 56.776,310.354 56.909 C 309.976 57.043,309.666 57.099,309.664 57.034 C 309.663 56.970,309.603 57.008,309.532 57.120 C 309.461 57.232,309.106 57.371,308.743 57.429 C 308.380 57.486,307.952 57.604,307.792 57.689 C 307.631 57.775,307.500 57.796,307.500 57.735 C 307.500 57.675,307.406 57.700,307.292 57.790 C 307.115 57.929,306.341 58.191,305.972 58.236 C 305.911 58.244,305.810 58.301,305.748 58.364 C 305.685 58.426,305.517 58.432,305.373 58.377 C 305.213 58.316,305.154 58.345,305.221 58.453 C 305.284 58.555,305.138 58.666,304.873 58.715 C 303.861 58.906,303.419 59.026,303.255 59.154 C 303.161 59.227,302.858 59.348,302.583 59.422 C 301.957 59.590,302.012 59.571,301.417 59.821 C 301.142 59.936,300.731 60.066,300.504 60.109 C 300.276 60.152,300.051 60.248,300.004 60.323 C 299.956 60.398,299.485 60.556,298.958 60.673 C 298.431 60.790,298.000 60.938,298.000 61.000 C 298.000 61.147,296.653 61.573,296.358 61.519 C 296.234 61.496,296.183 61.558,296.243 61.656 C 296.309 61.762,296.196 61.833,295.958 61.833 C 295.741 61.833,295.421 61.937,295.247 62.065 C 295.073 62.192,294.826 62.256,294.698 62.207 C 294.571 62.158,294.412 62.207,294.345 62.315 C 294.278 62.423,294.004 62.551,293.736 62.599 C 293.469 62.647,293.225 62.757,293.194 62.844 C 293.163 62.931,293.073 62.962,292.993 62.912 C 292.912 62.863,292.713 62.889,292.548 62.971 C 292.384 63.052,292.025 63.231,291.750 63.368 C 291.475 63.504,290.894 63.712,290.458 63.830 C 290.023 63.947,289.667 64.097,289.667 64.162 C 289.667 64.227,289.254 64.379,288.750 64.500 C 288.246 64.621,287.833 64.783,287.833 64.860 C 287.833 64.937,287.726 65.000,287.594 65.000 C 287.463 65.000,287.144 65.087,286.886 65.194 C 286.628 65.301,286.379 65.401,286.333 65.417 C 286.287 65.432,286.039 65.532,285.781 65.639 C 285.523 65.746,285.204 65.833,285.072 65.833 C 284.941 65.833,284.833 65.908,284.833 66.000 C 284.833 66.092,284.777 66.155,284.708 66.140 C 284.558 66.108,284.142 66.258,283.250 66.664 C 282.883 66.831,282.340 67.018,282.042 67.080 C 281.744 67.142,281.500 67.254,281.500 67.328 C 281.500 67.402,281.237 67.512,280.917 67.572 C 280.596 67.633,280.333 67.758,280.333 67.851 C 280.333 67.944,280.255 67.971,280.159 67.912 C 280.064 67.853,279.891 67.883,279.776 67.978 C 279.567 68.152,278.649 67.539,278.641 67.221 C 278.637 67.064,278.075 66.293,277.583 65.771 C 277.400 65.576,277.269 65.358,277.293 65.287 C 277.317 65.216,277.224 65.114,277.086 65.061 C 276.948 65.008,276.877 64.898,276.927 64.816 C 276.978 64.734,276.939 64.667,276.840 64.667 C 276.741 64.667,276.575 64.481,276.471 64.253 C 276.368 64.026,276.143 63.795,275.972 63.741 C 275.802 63.687,275.705 63.573,275.758 63.487 C 275.811 63.401,275.737 63.286,275.594 63.231 C 275.451 63.176,275.333 63.025,275.333 62.895 C 275.333 62.766,275.165 62.582,274.958 62.488 C 274.752 62.394,274.246 61.836,273.833 61.249 C 273.421 60.661,272.995 60.178,272.886 60.174 C 272.778 60.170,272.641 60.016,272.583 59.831 C 272.524 59.646,272.412 59.535,272.333 59.583 C 272.255 59.632,272.144 59.524,272.087 59.344 C 272.030 59.164,271.837 58.971,271.658 58.914 C 271.479 58.857,271.333 58.716,271.333 58.600 C 271.333 58.484,271.148 58.291,270.922 58.170 C 270.696 58.049,270.551 57.886,270.599 57.808 C 270.647 57.730,270.602 57.667,270.498 57.667 C 270.394 57.667,270.215 57.573,270.099 57.458 C 269.983 57.344,269.488 56.913,268.999 56.500 C 268.510 56.087,267.953 55.598,267.763 55.412 C 267.573 55.226,267.210 54.984,266.958 54.874 C 266.706 54.764,266.500 54.605,266.500 54.522 C 266.500 54.438,266.309 54.322,266.077 54.263 C 265.844 54.205,265.693 54.093,265.741 54.014 C 265.789 53.936,265.586 53.774,265.290 53.654 C 264.993 53.534,264.696 53.356,264.631 53.259 C 264.566 53.163,264.432 53.083,264.333 53.083 C 264.235 53.083,264.086 52.973,264.003 52.838 C 263.920 52.703,263.805 52.639,263.749 52.696 C 263.692 52.752,263.454 52.620,263.219 52.402 C 262.984 52.184,262.731 52.044,262.657 52.089 C 262.583 52.135,262.481 52.104,262.429 52.020 C 262.301 51.813,261.043 51.167,260.767 51.167 C 260.645 51.167,260.348 51.012,260.107 50.823 C 259.867 50.633,259.594 50.525,259.502 50.582 C 259.409 50.640,259.333 50.607,259.333 50.510 C 259.333 50.413,259.183 50.333,259.000 50.333 C 258.817 50.333,258.667 50.264,258.667 50.179 C 258.667 50.094,258.254 49.932,257.750 49.819 C 257.246 49.706,256.833 49.563,256.833 49.501 C 256.833 49.439,256.740 49.378,256.625 49.365 C 255.956 49.287,255.713 49.223,255.387 49.039 C 255.187 48.927,254.906 48.880,254.762 48.935 C 254.618 48.990,254.500 48.956,254.500 48.859 C 254.500 48.763,254.050 48.632,253.500 48.570 C 252.950 48.508,252.500 48.384,252.500 48.294 C 252.500 48.204,252.387 48.174,252.249 48.227 C 252.110 48.281,251.820 48.257,251.604 48.175 C 251.388 48.092,250.507 47.973,249.647 47.909 C 248.787 47.846,248.008 47.734,247.917 47.661 C 247.696 47.487,239.513 47.487,239.083 47.661 C 238.783 47.784,234.391 48.205,233.588 48.189 C 233.408 48.185,233.220 48.240,233.172 48.311 C 233.096 48.421,231.128 48.715,229.417 48.871 C 229.142 48.896,228.840 48.967,228.747 49.028 C 228.653 49.089,228.036 49.192,227.375 49.257 C 226.714 49.322,226.214 49.441,226.263 49.521 C 226.313 49.601,226.151 49.667,225.904 49.667 C 225.074 49.667,222.515 50.057,222.587 50.172 C 222.626 50.235,222.203 50.334,221.648 50.392 C 221.093 50.450,220.552 50.551,220.447 50.616 C 220.341 50.682,220.010 50.714,219.711 50.688 C 219.411 50.662,219.167 50.712,219.167 50.799 C 219.167 50.924,217.504 51.244,216.208 51.369 C 216.094 51.380,216.000 51.447,216.000 51.518 C 216.000 51.589,215.475 51.698,214.833 51.761 C 214.192 51.825,213.667 51.937,213.667 52.010 C 213.667 52.084,213.479 52.111,213.250 52.069 C 213.021 52.027,212.833 52.053,212.833 52.127 C 212.833 52.200,212.215 52.356,211.458 52.475 C 210.702 52.593,210.012 52.759,209.925 52.845 C 209.838 52.930,209.519 53.000,209.217 53.000 C 208.909 53.000,208.667 53.086,208.667 53.194 C 208.667 53.301,208.619 53.342,208.561 53.284 C 208.504 53.226,208.335 53.243,208.186 53.321 C 208.038 53.400,207.547 53.513,207.095 53.574 C 206.643 53.635,206.218 53.718,206.151 53.760 C 205.992 53.858,205.269 53.246,203.528 51.542 C 202.755 50.785,202.046 50.167,201.951 50.167 C 201.856 50.167,201.819 50.126,201.869 50.075 C 201.988 49.957,200.080 48.000,199.846 48.000 C 199.747 48.000,199.667 47.889,199.667 47.754 C 199.667 47.619,199.442 47.392,199.167 47.250 C 198.892 47.108,198.667 46.951,198.667 46.903 C 198.667 46.854,198.760 46.865,198.875 46.928 C 198.990 46.992,198.788 46.790,198.428 46.480 C 198.067 46.170,197.592 45.729,197.371 45.500 C 196.030 44.108,195.403 43.503,195.299 43.501 C 195.109 43.499,193.704 42.018,193.801 41.921 C 193.849 41.873,193.803 41.833,193.697 41.833 C 193.591 41.833,192.835 41.177,192.017 40.375 C 189.038 37.456,187.826 36.333,187.655 36.333 C 187.559 36.333,187.522 36.267,187.572 36.185 C 187.623 36.103,187.472 35.911,187.237 35.757 C 187.003 35.603,186.366 35.033,185.822 34.489 C 185.278 33.945,184.833 33.530,184.833 33.567 C 184.833 33.603,184.583 33.397,184.276 33.108 C 181.722 30.702,179.764 28.979,179.297 28.726 C 179.088 28.612,178.662 28.215,178.351 27.843 C 178.041 27.471,177.707 27.167,177.610 27.167 C 177.512 27.167,177.118 26.848,176.732 26.458 C 175.881 25.598,175.560 25.333,175.367 25.333 C 175.286 25.333,175.135 25.146,175.030 24.917 C 174.926 24.688,174.730 24.500,174.595 24.500 C 174.460 24.500,174.273 24.369,174.180 24.208 C 174.087 24.048,174.008 23.976,174.005 24.047 C 174.002 24.119,173.789 23.969,173.532 23.714 C 173.275 23.459,172.738 22.988,172.339 22.667 C 171.940 22.346,171.398 21.877,171.134 21.625 C 170.871 21.373,170.541 21.167,170.401 21.167 C 170.261 21.167,170.193 21.092,170.250 21.000 C 170.307 20.908,170.268 20.833,170.165 20.833 C 170.061 20.833,169.868 20.740,169.735 20.625 C 169.603 20.510,169.252 20.212,168.956 19.962 C 168.659 19.712,168.198 19.316,167.930 19.083 C 167.662 18.850,167.268 18.615,167.055 18.561 C 166.841 18.508,166.667 18.365,166.667 18.243 C 166.667 18.122,166.517 17.975,166.333 17.917 C 166.150 17.858,166.000 17.747,166.000 17.669 C 166.000 17.591,165.719 17.355,165.375 17.144 C 165.031 16.933,164.563 16.587,164.333 16.375 C 164.104 16.163,163.748 15.946,163.543 15.894 C 163.337 15.841,163.210 15.731,163.261 15.649 C 163.312 15.567,163.263 15.500,163.153 15.500 C 163.043 15.500,162.846 15.369,162.714 15.208 C 162.565 15.026,162.519 15.011,162.592 15.167 C 162.656 15.304,162.515 15.229,162.279 15.000 C 161.617 14.358,161.363 14.167,161.174 14.167 C 161.078 14.167,161.000 14.088,161.000 13.991 C 161.000 13.895,160.737 13.707,160.417 13.573 C 160.096 13.439,159.833 13.250,159.833 13.155 C 159.833 13.059,159.770 13.020,159.692 13.068 C 159.614 13.116,159.389 12.970,159.193 12.744 C 158.996 12.518,158.722 12.333,158.583 12.333 C 158.444 12.333,158.202 12.183,158.045 12.000 C 157.888 11.817,157.671 11.667,157.564 11.667 C 157.457 11.667,157.326 11.554,157.273 11.417 C 157.220 11.279,157.095 11.167,156.994 11.167 C 156.893 11.167,156.565 10.979,156.265 10.750 C 155.964 10.521,155.632 10.333,155.526 10.333 C 155.420 10.333,155.333 10.254,155.333 10.157 C 155.333 10.060,155.267 10.021,155.186 10.072 C 155.104 10.122,154.945 10.051,154.832 9.915 C 154.719 9.778,154.557 9.667,154.473 9.667 C 154.338 9.667,153.392 9.062,153.167 8.832 C 153.121 8.785,152.633 8.526,152.083 8.256 C 151.533 7.986,151.022 7.666,150.948 7.546 C 150.874 7.425,150.754 7.363,150.682 7.407 C 150.610 7.452,150.385 7.335,150.183 7.146 C 149.981 6.958,149.712 6.844,149.585 6.893 C 149.459 6.941,149.331 6.920,149.302 6.845 C 149.274 6.771,148.950 6.561,148.583 6.379 C 148.217 6.198,147.116 5.630,146.137 5.118 C 145.158 4.605,144.090 4.136,143.763 4.075 C 143.412 4.009,143.214 3.892,143.278 3.789 C 143.346 3.678,143.253 3.649,143.026 3.708 C 142.828 3.760,142.708 3.734,142.760 3.651 C 142.811 3.568,142.778 3.500,142.687 3.500 C 142.596 3.500,142.348 3.434,142.136 3.353 C 141.924 3.273,141.705 3.216,141.651 3.228 C 141.596 3.240,141.446 3.163,141.317 3.057 C 141.189 2.950,140.802 2.811,140.458 2.746 C 140.115 2.682,139.833 2.575,139.833 2.509 C 139.833 2.443,139.740 2.380,139.625 2.370 C 139.028 2.315,137.736 1.936,137.642 1.788 C 137.582 1.695,137.414 1.664,137.267 1.720 C 137.120 1.777,137.000 1.760,137.000 1.683 C 137.000 1.543,135.845 1.273,135.292 1.284 C 135.131 1.287,135.000 1.234,135.000 1.165 C 135.000 1.056,134.104 0.879,132.019 0.574 C 131.708 0.528,131.392 0.453,131.316 0.406 C 131.055 0.245,124.745 0.202,123.417 0.353 M379.083 40.938 C 378.717 40.978,378.304 41.056,378.167 41.110 C 378.029 41.164,377.692 41.222,377.417 41.240 C 377.142 41.257,376.804 41.315,376.667 41.367 C 376.529 41.420,375.929 41.550,375.333 41.657 C 374.204 41.860,374.078 41.889,373.667 42.043 C 373.529 42.094,373.117 42.211,372.750 42.303 C 371.978 42.496,371.047 42.812,370.618 43.028 C 370.454 43.110,370.236 43.126,370.134 43.063 C 370.022 42.994,369.995 43.024,370.067 43.141 C 370.142 43.262,370.063 43.333,369.854 43.333 C 369.671 43.333,369.311 43.420,369.053 43.526 C 368.794 43.632,368.508 43.730,368.417 43.743 C 368.325 43.757,368.039 43.858,367.781 43.967 C 367.523 44.077,367.222 44.167,367.112 44.167 C 367.002 44.167,366.632 44.317,366.290 44.500 C 365.948 44.683,365.555 44.833,365.417 44.833 C 365.279 44.833,365.167 44.906,365.167 44.995 C 365.167 45.084,365.054 45.113,364.917 45.060 C 364.779 45.008,364.667 45.039,364.667 45.130 C 364.667 45.222,364.402 45.346,364.079 45.407 C 363.755 45.467,363.534 45.587,363.587 45.673 C 363.640 45.759,363.568 45.785,363.425 45.730 C 363.283 45.676,363.167 45.711,363.167 45.808 C 363.167 45.905,362.904 46.034,362.583 46.094 C 362.262 46.155,362.000 46.256,362.000 46.321 C 362.000 46.459,360.827 46.935,360.633 46.875 C 360.560 46.852,360.500 46.899,360.500 46.978 C 360.500 47.058,360.164 47.217,359.753 47.332 C 359.342 47.448,359.047 47.607,359.096 47.687 C 359.146 47.768,359.051 47.836,358.885 47.839 C 358.719 47.842,358.441 47.952,358.267 48.083 C 358.093 48.215,357.887 48.283,357.809 48.235 C 357.731 48.187,357.667 48.224,357.667 48.317 C 357.667 48.411,357.367 48.568,357.000 48.667 C 356.633 48.765,356.333 48.912,356.333 48.993 C 356.333 49.074,356.108 49.190,355.833 49.250 C 355.558 49.310,355.333 49.423,355.333 49.500 C 355.333 49.578,355.052 49.733,354.708 49.845 C 354.365 49.957,354.046 50.094,354.000 50.149 C 353.861 50.318,351.592 51.406,351.458 51.368 C 351.390 51.349,351.333 51.400,351.333 51.482 C 351.333 51.564,351.146 51.678,350.917 51.735 C 350.688 51.793,350.500 51.918,350.500 52.013 C 350.500 52.108,350.425 52.140,350.333 52.083 C 350.242 52.027,350.167 52.060,350.167 52.157 C 350.167 52.254,350.063 52.333,349.937 52.333 C 349.811 52.333,349.615 52.445,349.502 52.581 C 349.388 52.718,349.238 52.794,349.167 52.750 C 349.096 52.706,348.946 52.781,348.833 52.917 C 348.721 53.052,348.568 53.126,348.495 53.080 C 348.421 53.034,348.260 53.096,348.138 53.217 C 348.016 53.338,347.673 53.545,347.375 53.676 C 347.077 53.807,346.833 53.963,346.833 54.023 C 346.833 54.082,346.636 54.180,346.394 54.241 C 346.152 54.301,345.714 54.535,345.420 54.759 C 345.126 54.983,344.761 55.167,344.609 55.167 C 344.458 55.167,344.333 55.228,344.333 55.302 C 344.333 55.377,344.074 55.540,343.757 55.664 C 343.440 55.788,343.140 55.995,343.091 56.122 C 343.042 56.250,342.937 56.314,342.856 56.264 C 342.776 56.214,342.539 56.322,342.329 56.503 C 342.120 56.685,341.885 56.833,341.808 56.833 C 341.369 56.833,341.781 57.295,342.459 57.562 C 345.890 58.918,352.224 61.923,355.304 63.658 C 355.916 64.002,356.754 64.472,357.167 64.702 C 366.375 69.831,382.635 80.857,390.830 87.528 C 391.647 88.193,391.660 88.188,394.250 86.230 C 395.533 85.260,397.312 83.930,398.203 83.275 L 399.823 82.083 399.828 62.292 C 399.831 51.406,399.815 42.495,399.792 42.489 C 399.720 42.470,396.778 41.999,396.167 41.909 C 395.846 41.861,394.777 41.736,393.792 41.631 C 392.806 41.525,392.000 41.383,392.000 41.313 C 392.000 41.244,391.531 41.185,390.958 41.182 C 390.385 41.178,389.729 41.134,389.500 41.083 C 388.968 40.965,379.970 40.840,379.083 40.938 " stroke="none" fill="#f1f1f1" fill-rule="evenodd"></path><path id="path2" d="M166.250 64.421 C 164.875 64.816,163.037 65.343,162.167 65.592 C 161.296 65.841,159.158 66.454,157.417 66.955 C 155.675 67.455,153.912 67.960,153.500 68.078 C 153.087 68.195,150.762 68.873,148.333 69.584 C 145.904 70.296,143.467 71.010,142.917 71.171 C 139.316 72.225,137.497 72.765,134.250 73.742 C 132.233 74.349,129.946 75.035,129.167 75.266 C 128.387 75.498,127.563 75.753,127.333 75.833 C 127.104 75.913,126.279 76.170,125.500 76.402 C 119.878 78.082,100.886 83.938,93.750 86.193 C 89.232 87.620,88.791 87.759,86.750 88.399 C 82.286 89.797,73.510 92.593,72.333 92.992 C 71.829 93.163,69.954 93.765,68.167 94.332 C 66.379 94.898,64.279 95.573,63.500 95.832 C 62.721 96.092,60.058 96.955,57.583 97.751 C 55.108 98.548,51.433 99.742,49.417 100.404 C 47.400 101.067,43.917 102.203,41.676 102.930 C 39.435 103.656,29.272 107.025,19.092 110.417 L 0.583 116.583 0.460 120.333 C 0.392 122.396,0.355 133.008,0.377 143.917 L 0.418 163.750 0.459 142.792 L 0.500 121.833 3.958 121.825 C 5.860 121.820,9.029 121.789,11.000 121.756 C 19.907 121.607,27.859 121.496,35.250 121.416 C 39.650 121.369,44.750 121.294,46.583 121.250 C 55.392 121.037,63.725 120.869,71.500 120.749 C 74.571 120.701,77.908 120.627,78.917 120.584 C 81.732 120.463,85.912 120.345,93.667 120.167 C 97.563 120.078,101.537 119.968,102.500 119.922 C 105.204 119.794,108.441 119.676,114.167 119.497 C 117.054 119.407,120.092 119.297,120.917 119.253 C 124.183 119.076,125.679 119.003,127.917 118.911 C 133.445 118.684,140.162 117.792,147.167 116.355 C 148.037 116.176,149.347 115.909,150.078 115.761 C 150.808 115.613,151.670 115.420,151.994 115.333 C 152.318 115.245,154.008 114.828,155.750 114.406 C 157.492 113.985,159.292 113.535,159.750 113.408 C 160.735 113.134,162.316 112.692,164.500 112.080 C 166.559 111.503,171.831 109.943,172.667 109.663 C 172.896 109.586,174.208 109.171,175.583 108.740 C 180.354 107.245,188.739 104.402,193.500 102.666 C 196.012 101.750,197.360 101.301,197.409 101.365 C 205.440 111.845,214.855 120.594,221.417 123.674 C 229.091 127.276,233.397 126.375,247.583 118.198 C 250.693 116.406,257.357 112.320,260.000 110.586 C 262.231 109.121,264.038 107.975,264.231 107.901 C 264.340 107.859,265.042 108.273,265.790 108.822 C 266.927 109.655,268.856 110.945,272.667 113.424 C 273.506 113.970,276.661 115.833,276.747 115.833 C 276.786 115.833,277.216 116.068,277.701 116.355 C 279.880 117.643,285.333 120.215,287.917 121.174 C 288.467 121.378,289.067 121.608,289.250 121.686 C 289.613 121.840,291.704 122.484,293.167 122.893 C 301.667 125.266,311.812 125.004,324.917 122.072 C 328.142 121.351,336.032 118.966,338.083 118.093 C 338.358 117.976,339.258 117.639,340.083 117.343 C 340.908 117.048,341.808 116.709,342.083 116.590 C 342.358 116.471,343.108 116.168,343.750 115.916 C 344.392 115.664,345.367 115.250,345.917 114.995 C 346.467 114.740,347.479 114.290,348.167 113.994 C 350.138 113.144,352.447 112.042,357.012 109.770 C 360.787 107.892,361.432 107.625,362.917 107.327 C 369.721 105.961,374.043 104.896,383.167 102.338 C 386.234 101.478,390.738 100.067,397.372 97.889 L 399.826 97.083 399.830 95.895 L 399.833 94.707 396.542 92.093 C 394.731 90.655,392.998 89.278,392.689 89.031 C 391.666 88.215,391.641 88.216,390.308 89.198 C 389.106 90.083,386.045 92.215,382.417 94.696 C 380.453 96.039,374.411 99.937,373.583 100.395 C 373.308 100.547,372.483 101.055,371.750 101.524 C 366.077 105.154,361.049 107.740,358.997 108.084 C 327.393 113.385,309.611 108.329,294.398 89.716 C 293.135 88.170,294.306 87.682,286.333 93.080 C 272.927 102.159,264.637 107.660,264.357 107.664 C 263.490 107.676,249.914 96.559,242.667 89.903 C 242.254 89.524,241.002 88.380,239.884 87.361 L 237.851 85.509 237.217 85.738 C 236.869 85.863,235.833 86.280,234.917 86.663 C 234.000 87.045,232.950 87.466,232.583 87.597 C 232.217 87.728,231.767 87.908,231.583 87.997 C 231.215 88.176,228.674 89.210,227.500 89.658 C 227.088 89.816,225.050 90.630,222.973 91.468 C 220.896 92.305,218.421 93.288,217.473 93.653 C 216.525 94.018,214.963 94.625,214.000 95.001 C 213.037 95.377,211.575 95.939,210.750 96.248 C 209.925 96.558,208.350 97.162,207.250 97.589 C 206.150 98.017,205.063 98.428,204.833 98.503 C 204.604 98.578,202.919 99.208,201.088 99.903 C 199.256 100.598,197.638 101.167,197.491 101.167 C 197.066 101.167,191.945 94.451,183.510 82.833 C 169.853 64.021,169.582 63.661,169.112 63.684 C 168.913 63.694,167.625 64.025,166.250 64.421 " stroke="none" fill="#d4d4d4" fill-rule="evenodd"></path><path id="path3" d="M396.917 98.006 C 393.278 99.274,386.656 101.360,383.167 102.338 C 377.822 103.836,373.724 104.924,371.167 105.524 C 367.796 106.315,364.668 106.997,362.500 107.415 C 361.506 107.607,360.381 108.089,357.012 109.767 C 352.463 112.034,350.151 113.138,348.167 113.994 C 347.479 114.290,346.467 114.740,345.917 114.995 C 345.367 115.250,344.392 115.664,343.750 115.916 C 343.108 116.168,342.358 116.471,342.083 116.590 C 341.808 116.709,340.908 117.048,340.083 117.343 C 339.258 117.639,338.358 117.976,338.083 118.093 C 336.032 118.966,328.142 121.351,324.917 122.072 C 311.812 125.004,301.667 125.266,293.167 122.893 C 291.704 122.484,289.613 121.840,289.250 121.686 C 289.067 121.608,288.467 121.378,287.917 121.174 C 285.333 120.215,279.880 117.643,277.701 116.355 C 277.216 116.068,276.786 115.833,276.747 115.833 C 276.661 115.833,273.506 113.970,272.667 113.424 C 268.856 110.945,266.927 109.655,265.790 108.822 C 265.042 108.273,264.340 107.859,264.231 107.901 C 264.038 107.975,262.231 109.121,260.000 110.586 C 244.554 120.722,233.156 126.215,228.502 125.767 C 220.156 124.963,211.015 118.016,199.070 103.401 C 198.178 102.309,197.430 101.393,197.409 101.365 C 197.360 101.301,196.012 101.750,193.500 102.666 C 188.739 104.402,180.354 107.245,175.583 108.740 C 174.208 109.171,172.896 109.586,172.667 109.663 C 171.831 109.943,166.559 111.503,164.500 112.080 C 162.316 112.692,160.735 113.134,159.750 113.408 C 159.292 113.535,157.492 113.985,155.750 114.406 C 154.008 114.828,152.318 115.245,151.994 115.333 C 151.670 115.420,150.808 115.613,150.078 115.761 C 149.347 115.909,148.037 116.176,147.167 116.355 C 140.162 117.792,133.445 118.684,127.917 118.911 C 125.679 119.003,124.183 119.076,120.917 119.253 C 120.092 119.297,117.054 119.407,114.167 119.497 C 108.441 119.676,105.204 119.794,102.500 119.922 C 101.537 119.968,97.563 120.078,93.667 120.167 C 85.912 120.345,81.732 120.463,78.917 120.584 C 77.908 120.627,74.571 120.701,71.500 120.749 C 63.725 120.869,55.392 121.037,46.583 121.250 C 44.750 121.294,39.650 121.369,35.250 121.416 C 27.859 121.496,19.907 121.607,11.000 121.756 C 9.029 121.789,5.860 121.820,3.958 121.825 L 0.500 121.833 0.500 142.833 L 0.500 163.834 200.167 163.833 L 399.833 163.833 399.833 130.500 C 399.833 98.860,399.819 97.167,399.542 97.180 C 399.381 97.188,398.200 97.559,396.917 98.006 " stroke="none" fill="#c4c4c4" fill-rule="evenodd"></path><path id="path4" d="M169.110 63.616 C 169.324 63.657,169.959 64.325,170.674 65.260 C 171.865 66.817,172.186 67.158,171.826 66.487 C 171.652 66.162,171.522 65.991,170.792 65.127 C 170.631 64.937,170.500 64.736,170.500 64.678 C 170.500 64.369,169.476 63.503,169.134 63.523 C 168.764 63.545,168.763 63.548,169.110 63.616 M167.333 63.868 C 166.921 63.959,166.508 64.094,166.417 64.168 C 166.325 64.243,165.950 64.359,165.583 64.428 C 164.931 64.549,163.773 64.981,164.064 64.993 C 164.250 65.002,168.558 63.815,168.653 63.729 C 168.768 63.625,168.130 63.692,167.333 63.868 M162.583 65.268 C 162.125 65.404,161.412 65.594,161.000 65.691 C 160.587 65.789,160.175 65.941,160.083 66.029 C 159.976 66.133,160.094 66.149,160.417 66.074 C 161.341 65.860,163.729 65.160,163.809 65.080 C 163.951 64.938,163.435 65.017,162.583 65.268 M158.667 66.366 C 158.254 66.456,157.842 66.603,157.750 66.693 C 157.570 66.870,158.079 66.773,159.250 66.408 C 160.044 66.160,159.719 66.137,158.667 66.366 M156.111 67.114 C 155.668 67.250,155.333 67.389,155.368 67.424 C 155.436 67.491,157.371 67.014,157.486 66.901 C 157.629 66.762,156.890 66.876,156.111 67.114 M172.371 67.542 C 172.597 67.840,173.288 68.777,173.907 69.625 C 174.525 70.473,175.062 71.167,175.099 71.167 C 175.263 71.167,175.138 70.883,174.791 70.472 C 174.585 70.227,173.929 69.350,173.333 68.523 C 172.737 67.695,172.185 67.014,172.105 67.009 C 172.026 67.004,172.145 67.244,172.371 67.542 M153.887 67.725 C 153.503 67.830,153.134 67.974,153.065 68.043 C 152.907 68.205,153.902 68.013,154.667 67.735 C 155.398 67.470,154.840 67.462,153.887 67.725 M151.917 68.286 C 151.289 68.437,151.212 68.710,151.833 68.582 C 152.575 68.429,153.072 68.170,152.583 68.191 C 152.400 68.199,152.100 68.241,151.917 68.286 M150.333 68.777 C 149.921 68.906,149.246 69.118,148.833 69.249 C 148.421 69.379,147.802 69.535,147.458 69.595 C 147.115 69.655,146.833 69.778,146.833 69.870 C 146.833 69.961,146.927 70.002,147.042 69.960 C 147.156 69.919,148.131 69.637,149.208 69.334 C 150.285 69.031,151.167 68.719,151.167 68.641 C 151.167 68.564,151.148 68.509,151.125 68.521 C 151.102 68.533,150.746 68.648,150.333 68.777 M145.387 70.225 C 144.585 70.445,144.164 70.756,144.917 70.571 C 145.671 70.386,146.617 70.023,146.333 70.028 C 146.196 70.031,145.770 70.119,145.387 70.225 M143.053 70.891 C 142.670 70.997,142.295 71.148,142.220 71.228 C 142.056 71.401,142.997 71.213,143.827 70.907 C 144.560 70.637,144.015 70.626,143.053 70.891 M140.259 71.761 C 139.531 71.984,138.804 72.167,138.644 72.167 C 138.484 72.167,138.302 72.250,138.239 72.351 C 138.161 72.478,138.275 72.503,138.604 72.430 C 139.434 72.247,142.095 71.365,141.833 71.360 C 141.696 71.357,140.988 71.538,140.259 71.761 M175.595 71.958 C 175.853 72.302,176.247 72.829,176.472 73.130 C 176.696 73.430,176.920 73.636,176.968 73.587 C 177.017 73.539,176.904 73.330,176.716 73.124 C 176.529 72.918,176.169 72.431,175.916 72.042 C 175.663 71.652,175.382 71.333,175.291 71.333 C 175.201 71.333,175.338 71.615,175.595 71.958 M137.000 72.689 C 136.103 72.933,135.945 73.000,136.042 73.097 C 136.137 73.192,138.000 72.692,138.000 72.572 C 138.000 72.468,137.667 72.507,137.000 72.689 M134.607 73.438 C 134.162 73.575,133.832 73.721,133.873 73.761 C 133.914 73.802,134.390 73.693,134.932 73.518 C 135.474 73.343,135.804 73.198,135.667 73.195 C 135.529 73.192,135.052 73.302,134.607 73.438 M132.500 74.076 C 132.087 74.197,131.225 74.458,130.583 74.657 C 129.942 74.855,129.117 75.096,128.750 75.191 C 127.722 75.457,127.612 75.501,127.713 75.602 C 127.764 75.653,128.431 75.505,129.195 75.273 C 132.563 74.249,133.733 73.865,133.500 73.860 C 133.362 73.858,132.912 73.955,132.500 74.076 M177.126 74.042 C 177.217 74.156,177.887 75.075,178.613 76.083 C 182.577 81.588,185.200 85.167,185.268 85.167 C 185.358 85.167,185.025 84.519,184.802 84.260 C 184.532 83.948,180.923 78.986,180.750 78.690 C 180.658 78.533,180.490 78.295,180.376 78.161 C 179.837 77.525,178.833 76.165,178.833 76.070 C 178.833 76.011,178.546 75.615,178.195 75.190 C 177.843 74.765,177.508 74.285,177.450 74.125 C 177.392 73.965,177.257 73.833,177.151 73.833 C 177.020 73.833,177.012 73.899,177.126 74.042 M126.917 75.780 C 126.204 75.940,125.481 76.203,125.554 76.276 C 125.641 76.363,127.500 75.849,127.500 75.738 C 127.500 75.661,127.425 75.666,126.917 75.780 M124.333 76.522 C 123.437 76.766,123.278 76.834,123.375 76.930 C 123.470 77.026,125.333 76.526,125.333 76.405 C 125.333 76.302,125.000 76.341,124.333 76.522 M121.958 77.204 C 121.523 77.295,121.167 77.438,121.167 77.521 C 121.167 77.684,121.729 77.577,122.667 77.236 C 123.353 76.986,123.067 76.973,121.958 77.204 M119.833 77.851 C 119.513 77.936,119.138 78.068,119.000 78.144 C 118.862 78.220,118.337 78.378,117.833 78.496 C 117.329 78.614,116.842 78.769,116.750 78.840 C 116.658 78.912,116.301 79.023,115.956 79.087 C 115.438 79.184,114.897 79.500,115.250 79.500 C 115.402 79.500,120.905 77.801,120.986 77.728 C 121.108 77.620,120.437 77.691,119.833 77.851 M114.333 79.606 C 114.013 79.721,113.586 79.819,113.385 79.824 C 113.184 79.829,112.976 79.903,112.924 79.989 C 112.871 80.074,112.418 80.229,111.917 80.333 C 111.416 80.437,110.958 80.600,110.899 80.696 C 110.833 80.802,110.912 80.834,111.104 80.778 C 112.619 80.335,114.930 79.611,114.986 79.562 C 115.171 79.397,114.857 79.418,114.333 79.606 M109.458 81.038 C 109.023 81.128,108.667 81.271,108.667 81.355 C 108.667 81.518,109.229 81.411,110.167 81.069 C 110.853 80.819,110.567 80.807,109.458 81.038 M105.333 82.365 C 103.912 82.821,102.337 83.302,101.833 83.433 C 101.329 83.565,100.804 83.735,100.667 83.811 C 100.529 83.886,100.023 84.043,99.541 84.158 C 99.060 84.273,98.619 84.442,98.562 84.535 C 98.437 84.736,98.108 84.828,103.167 83.251 C 108.233 81.671,108.665 81.525,108.250 81.531 C 108.067 81.533,106.754 81.908,105.333 82.365 M97.750 84.750 C 97.658 84.781,97.021 84.968,96.333 85.166 C 94.710 85.633,94.550 85.694,94.750 85.766 C 94.842 85.799,95.704 85.572,96.667 85.261 C 97.629 84.950,98.304 84.695,98.167 84.694 C 98.029 84.694,97.842 84.718,97.750 84.750 M185.762 85.958 C 186.020 86.302,186.414 86.829,186.638 87.130 C 186.863 87.430,187.082 87.640,187.125 87.597 C 187.169 87.554,186.943 87.195,186.624 86.801 C 186.305 86.406,185.957 85.915,185.850 85.708 C 185.742 85.502,185.574 85.333,185.474 85.333 C 185.375 85.333,185.504 85.615,185.762 85.958 M237.184 85.514 C 236.965 85.602,236.818 85.707,236.858 85.747 C 236.978 85.867,237.667 85.640,237.667 85.481 C 237.667 85.400,237.648 85.338,237.625 85.344 C 237.602 85.350,237.404 85.426,237.184 85.514 M240.461 87.900 C 241.903 89.219,243.116 90.268,243.155 90.231 C 243.195 90.193,242.932 89.897,242.572 89.573 C 241.279 88.409,238.783 86.078,238.524 85.792 C 238.378 85.631,238.164 85.500,238.049 85.500 C 237.933 85.500,239.018 86.580,240.461 87.900 M93.417 86.075 C 93.050 86.184,92.539 86.361,92.281 86.470 C 92.023 86.578,91.709 86.667,91.583 86.667 C 91.238 86.667,90.441 86.997,90.543 87.098 C 90.635 87.191,94.500 86.021,94.500 85.901 C 94.500 85.800,94.160 85.854,93.417 86.075 M235.887 86.054 C 235.235 86.295,234.920 86.590,235.500 86.417 C 236.007 86.265,236.815 85.844,236.583 85.853 C 236.492 85.856,236.178 85.947,235.887 86.054 M234.500 86.618 C 234.362 86.669,233.947 86.845,233.578 87.009 C 233.208 87.174,232.701 87.360,232.451 87.423 C 232.201 87.486,231.951 87.612,231.894 87.703 C 231.744 87.946,234.683 86.873,234.980 86.576 C 235.078 86.478,234.820 86.501,234.500 86.618 M89.125 87.433 C 88.690 87.567,88.333 87.718,88.333 87.768 C 88.333 87.895,89.277 87.676,89.901 87.404 C 90.579 87.109,90.125 87.126,89.125 87.433 M87.042 88.044 C 86.652 88.137,86.333 88.286,86.333 88.375 C 86.333 88.463,86.441 88.494,86.573 88.444 C 86.705 88.393,87.117 88.270,87.490 88.169 C 88.698 87.844,88.317 87.737,87.042 88.044 M187.529 88.375 C 189.939 91.765,197.191 101.198,197.302 101.087 C 197.370 101.019,197.060 100.604,195.539 98.728 C 195.380 98.532,195.100 98.163,194.917 97.908 C 194.733 97.654,194.508 97.364,194.415 97.264 C 194.322 97.165,193.723 96.371,193.083 95.500 C 192.444 94.629,191.844 93.825,191.752 93.713 C 191.659 93.600,191.454 93.338,191.295 93.129 C 190.145 91.615,189.549 90.815,189.333 90.497 C 189.196 90.294,188.813 89.780,188.482 89.356 C 188.152 88.931,187.793 88.415,187.685 88.208 C 187.577 88.002,187.411 87.833,187.316 87.833 C 187.221 87.833,187.317 88.077,187.529 88.375 M231.167 87.950 C 231.029 88.000,230.692 88.140,230.417 88.262 C 229.890 88.496,226.474 89.866,225.934 90.061 C 225.761 90.123,225.660 90.215,225.710 90.266 C 225.795 90.351,226.169 90.215,228.500 89.254 C 229.004 89.046,229.867 88.702,230.417 88.488 C 231.600 88.029,232.263 87.554,231.167 87.950 M390.167 89.083 C 389.479 89.580,388.842 90.045,388.750 90.118 C 388.658 90.191,388.246 90.473,387.833 90.747 C 387.421 91.020,386.558 91.624,385.917 92.089 C 385.275 92.555,384.619 92.985,384.458 93.046 C 384.298 93.107,384.167 93.237,384.167 93.336 C 384.167 93.519,385.736 92.470,389.482 89.785 C 391.735 88.170,391.636 88.191,392.757 89.083 C 393.102 89.358,394.555 90.512,395.984 91.646 C 397.414 92.780,398.726 93.830,398.899 93.979 C 399.073 94.128,399.186 94.164,399.149 94.060 C 399.095 93.904,396.101 91.471,392.559 88.706 C 391.670 88.012,391.644 88.016,390.167 89.083 M291.733 89.198 C 290.140 90.244,290.263 90.151,290.350 90.239 C 290.390 90.279,291.021 89.906,291.753 89.411 C 293.398 88.299,293.224 88.279,294.398 89.716 C 294.938 90.376,295.886 91.479,296.505 92.167 C 297.123 92.854,297.786 93.604,297.976 93.833 C 298.166 94.063,298.325 94.174,298.328 94.082 C 298.331 93.990,297.722 93.240,296.975 92.415 C 296.228 91.591,295.347 90.579,295.017 90.167 C 293.292 88.012,293.463 88.062,291.733 89.198 M84.250 88.946 C 82.887 89.377,81.784 89.826,82.083 89.826 C 82.175 89.826,83.150 89.534,84.250 89.176 C 85.350 88.819,86.100 88.526,85.917 88.525 C 85.733 88.524,84.983 88.713,84.250 88.946 M80.083 90.278 C 79.350 90.509,78.646 90.731,78.518 90.770 C 78.390 90.809,78.327 90.883,78.378 90.933 C 78.463 91.019,81.659 90.063,81.818 89.905 C 81.979 89.743,81.339 89.881,80.083 90.278 M224.720 90.554 C 224.069 90.795,223.753 91.090,224.333 90.917 C 224.841 90.765,225.648 90.344,225.417 90.353 C 225.325 90.356,225.012 90.447,224.720 90.554 M243.347 90.427 C 243.397 91.010,261.198 105.857,261.493 105.562 C 261.543 105.513,261.433 105.369,261.250 105.242 C 261.067 105.115,260.842 104.953,260.750 104.881 C 260.658 104.809,260.283 104.531,259.917 104.262 C 259.550 103.994,259.137 103.674,259.000 103.551 C 258.862 103.428,258.075 102.798,257.250 102.150 C 256.425 101.503,255.537 100.793,255.277 100.572 C 255.016 100.351,254.191 99.665,253.443 99.047 C 252.695 98.429,252.023 97.828,251.950 97.712 C 251.877 97.595,251.739 97.500,251.644 97.500 C 251.548 97.500,251.196 97.247,250.860 96.938 C 250.525 96.628,249.800 95.981,249.250 95.499 C 247.270 93.764,244.473 91.296,243.792 90.683 C 243.540 90.456,243.339 90.341,243.347 90.427 M287.583 92.015 C 285.426 93.467,283.946 94.574,284.833 94.072 C 285.368 93.770,289.763 90.782,289.994 90.564 C 290.495 90.090,290.018 90.377,287.583 92.015 M77.113 91.242 C 76.762 91.367,76.425 91.520,76.363 91.582 C 76.213 91.732,77.125 91.508,77.750 91.241 C 78.420 90.954,77.916 90.955,77.113 91.242 M223.333 91.117 C 223.196 91.166,222.858 91.307,222.583 91.428 C 221.483 91.914,218.742 93.000,218.616 93.000 C 218.542 93.000,218.164 93.145,217.777 93.321 C 217.389 93.498,216.867 93.694,216.618 93.756 C 216.222 93.855,215.811 94.167,216.076 94.167 C 216.256 94.167,223.833 91.144,223.833 91.072 C 223.833 90.983,223.660 90.998,223.333 91.117 M75.083 91.859 C 74.808 91.950,74.433 92.088,74.250 92.166 C 74.067 92.245,73.242 92.512,72.417 92.762 C 71.072 93.168,69.930 93.695,71.000 93.415 C 72.160 93.111,76.205 91.696,75.917 91.695 C 75.733 91.694,75.358 91.768,75.083 91.859 M69.274 93.772 C 68.829 93.908,68.498 94.054,68.539 94.095 C 68.580 94.136,69.057 94.026,69.599 93.851 C 70.140 93.676,70.471 93.531,70.333 93.528 C 70.196 93.525,69.719 93.635,69.274 93.772 M383.542 93.703 C 383.335 93.803,383.167 93.950,383.167 94.029 C 383.167 94.109,383.354 94.051,383.583 93.901 C 384.195 93.501,384.173 93.399,383.542 93.703 M67.333 94.351 C 67.012 94.436,66.637 94.569,66.498 94.646 C 66.359 94.723,65.808 94.914,65.272 95.070 C 64.736 95.226,64.331 95.387,64.372 95.428 C 64.454 95.509,68.148 94.408,68.298 94.258 C 68.425 94.130,68.020 94.169,67.333 94.351 M214.583 94.587 C 214.033 94.813,213.508 94.999,213.417 95.000 C 213.325 95.001,213.063 95.098,212.833 95.216 C 212.604 95.333,212.056 95.566,211.615 95.732 C 211.174 95.899,210.847 96.069,210.888 96.110 C 210.961 96.183,214.435 94.891,215.417 94.425 C 216.248 94.031,215.652 94.146,214.583 94.587 M283.266 94.922 C 282.725 95.326,282.200 95.686,282.099 95.722 C 281.999 95.758,281.957 95.832,282.006 95.886 C 282.085 95.973,284.011 94.722,284.408 94.325 C 284.823 93.910,284.155 94.260,283.266 94.922 M298.500 94.242 C 298.500 94.565,302.279 98.002,304.667 99.851 C 307.077 101.717,310.500 103.875,310.500 103.529 C 310.500 103.439,310.294 103.287,310.042 103.191 C 309.518 102.991,308.695 102.510,308.379 102.219 C 308.261 102.111,308.015 101.974,307.832 101.916 C 307.650 101.858,307.500 101.750,307.500 101.676 C 307.500 101.601,307.280 101.449,307.012 101.338 C 306.744 101.227,306.483 101.031,306.434 100.901 C 306.384 100.772,306.270 100.667,306.181 100.667 C 305.760 100.667,302.541 97.981,299.708 95.268 C 299.044 94.631,298.500 94.169,298.500 94.242 M382.429 94.420 C 382.252 94.554,382.148 94.703,382.197 94.752 C 382.246 94.802,382.465 94.692,382.685 94.510 C 383.140 94.130,382.916 94.052,382.429 94.420 M380.386 95.800 C 379.635 96.322,378.643 96.975,378.180 97.250 C 377.718 97.525,377.338 97.811,377.336 97.885 C 377.333 98.048,377.243 98.100,379.875 96.391 C 381.044 95.632,382.000 94.971,382.000 94.922 C 382.000 94.723,381.687 94.893,380.386 95.800 M63.417 95.619 C 63.233 95.663,62.858 95.796,62.583 95.913 C 61.967 96.177,60.106 96.756,59.377 96.911 C 59.080 96.974,58.789 97.103,58.731 97.197 C 58.609 97.395,58.522 97.418,61.792 96.386 C 63.098 95.974,64.167 95.606,64.167 95.568 C 64.167 95.488,63.881 95.507,63.417 95.619 M280.430 96.875 C 279.723 97.356,278.854 97.938,278.499 98.167 C 278.145 98.396,277.456 98.854,276.969 99.184 C 275.563 100.138,272.212 102.374,271.448 102.869 C 271.064 103.117,270.675 103.381,270.583 103.453 C 270.428 103.577,269.757 104.028,269.153 104.415 C 268.583 104.780,267.737 105.334,267.500 105.498 C 267.362 105.593,266.707 106.021,266.044 106.449 C 265.381 106.877,264.874 107.263,264.917 107.306 C 265.019 107.407,281.833 96.232,281.833 96.064 C 281.833 95.935,281.690 96.018,280.430 96.875 M209.333 96.585 C 208.829 96.800,208.270 97.015,208.091 97.064 C 207.911 97.113,207.807 97.196,207.859 97.248 C 207.940 97.328,210.456 96.413,210.653 96.231 C 210.847 96.052,210.145 96.240,209.333 96.585 M57.375 97.544 C 56.985 97.637,56.667 97.778,56.667 97.857 C 56.667 98.071,56.999 98.017,57.833 97.667 C 58.652 97.323,58.482 97.278,57.375 97.544 M206.792 97.534 C 206.448 97.625,206.167 97.763,206.167 97.840 C 206.167 97.917,206.504 97.865,206.917 97.724 C 208.035 97.343,207.957 97.224,206.792 97.534 M55.500 98.184 C 55.179 98.269,54.795 98.407,54.646 98.491 C 54.496 98.575,54.102 98.695,53.769 98.757 C 53.254 98.854,52.741 99.167,53.098 99.167 C 53.272 99.167,56.401 98.154,56.484 98.071 C 56.594 97.962,56.147 98.013,55.500 98.184 M205.054 98.221 C 204.762 98.329,204.471 98.471,204.406 98.537 C 204.278 98.667,205.001 98.471,205.667 98.194 C 206.240 97.956,205.708 97.979,205.054 98.221 M376.417 98.412 C 376.142 98.637,375.829 98.824,375.722 98.827 C 375.615 98.831,375.503 98.896,375.472 98.972 C 375.442 99.049,374.929 99.390,374.333 99.731 C 373.738 100.072,372.800 100.646,372.250 101.006 C 371.700 101.365,371.013 101.793,370.724 101.955 C 367.870 103.556,365.841 104.775,365.838 104.891 C 365.833 105.054,366.391 104.741,370.216 102.436 C 371.756 101.509,373.256 100.606,373.550 100.429 C 374.743 99.711,377.167 98.128,377.167 98.066 C 377.167 97.901,376.876 98.035,376.417 98.412 M203.333 98.847 C 200.384 99.978,199.726 100.246,199.583 100.372 C 199.492 100.454,200.054 100.283,200.833 99.992 C 201.612 99.701,202.681 99.315,203.208 99.133 C 203.735 98.951,204.167 98.772,204.167 98.735 C 204.167 98.624,203.780 98.676,203.333 98.847 M51.500 99.445 C 51.362 99.492,51.014 99.636,50.725 99.765 C 50.436 99.894,50.122 100.000,50.027 100.000 C 49.740 100.000,48.948 100.337,49.034 100.423 C 49.110 100.499,52.172 99.547,52.319 99.402 C 52.414 99.308,51.808 99.340,51.500 99.445 M48.083 100.623 C 47.479 100.775,46.952 101.008,47.032 101.087 C 47.075 101.130,47.517 101.021,48.013 100.845 C 48.842 100.551,48.883 100.421,48.083 100.623 M198.333 100.695 C 197.698 100.874,197.273 101.173,197.675 101.157 C 197.808 101.152,198.254 101.006,198.667 100.833 C 199.468 100.497,199.293 100.424,198.333 100.695 M45.583 101.451 C 45.125 101.594,44.828 101.740,44.923 101.774 C 45.018 101.809,45.505 101.692,46.006 101.514 C 47.094 101.128,46.769 101.079,45.583 101.451 M43.917 101.952 C 43.733 101.997,43.358 102.130,43.083 102.249 C 42.425 102.533,39.808 103.335,39.542 103.334 C 39.427 103.334,39.333 103.416,39.333 103.518 C 39.333 103.619,39.427 103.667,39.542 103.623 C 39.656 103.580,40.856 103.191,42.208 102.760 C 43.560 102.329,44.667 101.944,44.667 101.905 C 44.667 101.821,44.386 101.839,43.917 101.952 M38.053 103.891 C 37.343 104.087,36.920 104.344,37.347 104.320 C 37.686 104.302,39.300 103.692,39.000 103.696 C 38.862 103.698,38.436 103.786,38.053 103.891 M310.667 103.754 C 310.667 103.793,310.892 103.941,311.167 104.083 C 311.442 104.226,311.667 104.272,311.667 104.187 C 311.667 104.102,311.442 103.954,311.167 103.858 C 310.892 103.762,310.667 103.716,310.667 103.754 M36.096 104.520 C 35.737 104.604,35.362 104.738,35.263 104.817 C 35.164 104.897,34.821 105.017,34.500 105.084 C 33.941 105.201,32.946 105.646,33.211 105.660 C 33.423 105.671,37.000 104.489,37.000 104.408 C 37.000 104.317,36.923 104.326,36.096 104.520 M312.667 104.823 C 314.616 105.830,317.632 107.015,317.436 106.697 C 317.377 106.603,317.087 106.474,316.790 106.410 C 316.493 106.347,316.063 106.195,315.833 106.073 C 315.604 105.951,315.117 105.725,314.750 105.570 C 314.383 105.415,313.627 105.073,313.070 104.811 C 311.765 104.196,311.470 104.205,312.667 104.823 M364.417 105.592 C 363.867 105.909,363.210 106.250,362.958 106.351 C 362.706 106.451,362.500 106.585,362.500 106.649 C 362.500 106.714,362.238 106.861,361.917 106.977 C 361.596 107.093,361.333 107.263,361.333 107.354 C 361.333 107.445,361.390 107.488,361.458 107.449 C 361.527 107.409,362.502 106.875,363.625 106.260 C 364.748 105.646,365.667 105.111,365.667 105.072 C 365.667 104.918,365.378 105.038,364.417 105.592 M31.917 105.934 C 31.550 106.073,30.988 106.261,30.667 106.353 C 29.743 106.615,29.614 106.669,29.702 106.758 C 29.792 106.847,33.000 105.854,33.000 105.737 C 33.000 105.605,32.584 105.681,31.917 105.934 M262.333 106.224 C 262.333 106.457,264.196 107.682,264.450 107.616 C 264.737 107.542,264.737 107.538,264.451 107.519 C 264.160 107.500,263.969 107.378,263.334 106.804 C 262.995 106.498,262.333 106.114,262.333 106.224 M28.553 107.058 C 27.748 107.280,27.336 107.586,28.084 107.407 C 28.660 107.269,29.665 106.859,29.417 106.863 C 29.325 106.865,28.936 106.952,28.553 107.058 M317.667 106.907 C 317.667 106.993,320.485 107.899,321.313 108.080 C 321.707 108.166,321.841 108.147,321.761 108.018 C 321.698 107.916,321.511 107.833,321.344 107.833 C 321.177 107.833,320.310 107.608,319.417 107.333 C 317.677 106.798,317.667 106.795,317.667 106.907 M26.500 107.695 C 25.750 107.907,25.385 108.237,26.083 108.072 C 26.756 107.914,27.646 107.527,27.333 107.529 C 27.196 107.529,26.821 107.604,26.500 107.695 M359.167 107.789 C 358.846 107.826,358.508 107.933,358.417 108.026 C 358.241 108.203,359.527 108.067,360.330 107.823 C 360.822 107.674,360.281 107.658,359.167 107.789 M24.500 108.357 C 24.179 108.445,23.680 108.626,23.391 108.759 C 23.103 108.891,22.789 109.000,22.694 109.000 C 22.417 109.000,21.613 109.336,21.695 109.417 C 21.766 109.489,25.342 108.372,25.486 108.233 C 25.599 108.125,25.128 108.185,24.500 108.357 M322.011 108.225 C 322.146 108.371,324.675 108.880,324.774 108.781 C 324.853 108.703,324.005 108.494,322.583 108.241 C 322.217 108.176,321.959 108.169,322.011 108.225 M355.537 108.411 C 354.150 108.599,353.327 108.833,354.057 108.833 C 354.513 108.833,357.726 108.330,357.811 108.245 C 357.927 108.129,357.267 108.177,355.537 108.411 M325.008 108.887 C 325.094 108.982,328.006 109.498,328.468 109.499 C 329.170 109.501,328.328 109.198,327.380 109.107 C 326.759 109.048,325.950 108.951,325.583 108.893 C 325.217 108.834,324.958 108.831,325.008 108.887 M351.250 109.015 C 350.608 109.091,349.722 109.186,349.281 109.226 C 348.453 109.301,347.993 109.500,348.647 109.500 C 349.218 109.500,353.575 108.980,353.653 108.902 C 353.754 108.802,352.592 108.856,351.250 109.015 M19.833 109.924 C 19.237 110.139,18.603 110.354,18.424 110.401 C 18.245 110.448,18.135 110.524,18.181 110.570 C 18.260 110.649,21.338 109.718,21.485 109.570 C 21.668 109.387,20.809 109.571,19.833 109.924 M329.750 109.662 C 331.210 109.864,334.571 110.017,333.750 109.845 C 333.383 109.768,332.108 109.664,330.917 109.615 C 329.430 109.553,329.064 109.568,329.750 109.662 M343.958 109.666 C 342.880 109.728,341.943 109.838,341.874 109.909 C 341.744 110.045,345.137 109.888,347.000 109.672 L 348.083 109.546 347.000 109.549 C 346.404 109.551,345.035 109.603,343.958 109.666 M336.917 110.018 C 336.484 110.084,336.846 110.128,337.948 110.143 C 338.883 110.156,339.681 110.110,339.724 110.042 C 339.815 109.892,337.856 109.875,336.917 110.018 M16.000 111.194 C 15.129 111.475,14.180 111.809,13.891 111.936 C 13.603 112.063,13.289 112.167,13.194 112.167 C 12.908 112.167,12.115 112.504,12.200 112.589 C 12.274 112.663,17.833 110.880,17.986 110.733 C 18.167 110.560,17.445 110.727,16.000 111.194 M11.000 112.861 C 10.679 112.952,10.342 113.106,10.250 113.204 C 10.135 113.328,10.170 113.352,10.365 113.284 C 10.519 113.230,10.951 113.103,11.323 113.003 C 11.695 112.903,12.000 112.786,12.000 112.744 C 12.000 112.633,11.670 112.672,11.000 112.861 M8.917 113.601 C 8.550 113.740,7.987 113.928,7.667 114.019 C 6.740 114.282,6.614 114.336,6.705 114.427 C 6.785 114.507,9.832 113.557,9.985 113.404 C 10.136 113.252,9.551 113.360,8.917 113.601 M5.472 114.726 C 5.136 114.831,4.798 114.979,4.722 115.055 C 4.551 115.227,5.410 115.029,6.083 114.741 C 6.701 114.477,6.301 114.467,5.472 114.726 M3.500 115.361 C 2.750 115.573,2.385 115.904,3.083 115.739 C 3.756 115.580,4.646 115.194,4.333 115.195 C 4.196 115.196,3.821 115.271,3.500 115.361 M1.750 115.952 C 1.567 115.996,1.345 116.100,1.258 116.183 C 1.020 116.409,1.504 116.355,2.083 116.089 C 2.575 115.864,2.405 115.795,1.750 115.952 M0.479 116.609 C 0.216 116.926,0.016 163.417,0.277 163.677 C 0.354 163.753,0.417 153.239,0.417 140.311 C 0.417 117.236,0.423 116.802,0.740 116.570 C 0.918 116.440,0.984 116.333,0.886 116.333 C 0.788 116.333,0.605 116.457,0.479 116.609 " stroke="none" fill="#dcdcdc" fill-rule="evenodd"></path></g></svg>